<?xml version="1.0" encoding="UTF-8" standalone="no"?>
<svg
   width="128"
   height="128"
   viewBox="0 0 33.866666 33.866666"
   version="1.1"
   id="svg1"
   sodipodi:docname="io.github.essicolo.Pince.svg"
   inkscape:version="1.4.3 (0d15f75042, 2025-12-25)"
   xmlns:inkscape="http://www.inkscape.org/namespaces/inkscape"
   xmlns:sodipodi="http://sodipodi.sourceforge.net/DTD/sodipodi-0.dtd"
   xmlns="http://www.w3.org/2000/svg"
   xmlns:svg="http://www.w3.org/2000/svg">
  <sodipodi:namedview
     id="namedview1"
     pagecolor="#ffffff"
     bordercolor="#000000"
     borderopacity="0.25"
     inkscape:showpageshadow="2"
     inkscape:pageopacity="0.0"
     inkscape:pagecheckerboard="0"
     inkscape:deskcolor="#d1d1d1"
     showgrid="true"
     inkscape:zoom="27.044043"
     inkscape:cx="68.296"
     inkscape:cy="16.491617"
     inkscape:window-width="1920"
     inkscape:window-height="1011"
     inkscape:window-x="0"
     inkscape:window-y="0"
     inkscape:window-maximized="1"
     inkscape:current-layer="svg1">
    <inkscape:grid
       id="grid1"
       units="px"
       originx="0"
       originy="0"
       spacingx="0.26458333"
       spacingy="0.26458333"
       empcolor="#0099e5"
       empopacity="0.30196078"
       color="#0099e5"
       opacity="0.14901961"
       empspacing="5"
       enabled="true"
       visible="true" />
  </sodipodi:namedview>
  <defs
     id="defs1" />
  <path
     style="fill:#292929;fill-opacity:1;stroke:#000000;stroke-width:0.529167;stroke-linecap:round;stroke-linejoin:round;stroke-dasharray:none;stroke-opacity:1"
     d="m 22.92407,11.076214 1.631272,1.631273 -0.978763,5.546328 H 22.92407 Z"
     id="path5" />
  <rect
     style="fill:#ffffff;fill-opacity:1;stroke:#000000;stroke-width:0.529167;stroke-linecap:round;stroke-linejoin:round;stroke-dasharray:none;stroke-opacity:1"
     id="rect5"
     width="29.163698"
     height="14.558149"
     x="3.2633836"
     y="13.868935"
     ry="1.7055318" />
  <rect
     style="fill:#ffffff;fill-opacity:1;stroke:#000000;stroke-width:0.529167;stroke-linecap:round;stroke-linejoin:round;stroke-dasharray:none;stroke-opacity:1"
     id="rect2"
     width="29.163698"
     height="14.558149"
     x="2.2633834"
     y="14.868935"
     ry="1.7055318" />
  <rect
     style="fill:#ffffff;fill-opacity:1;stroke:#000000;stroke-width:0.529167;stroke-linecap:round;stroke-linejoin:round;stroke-dasharray:none;stroke-opacity:1"
     id="rect6"
     width="29.163698"
     height="14.558149"
     x="1.2633834"
     y="15.868935"
     ry="1.7055318" />
  <path
     style="fill:none;fill-opacity:1;stroke:#4d4d4d;stroke-width:0.529167;stroke-linecap:round;stroke-linejoin:round;stroke-dasharray:none;stroke-opacity:1"
     d="m 14.206483,17.213199 5.28643,-10.9742388 c 0,0 -1.659558,-1.226196 -1.255751,-2.4671687 0.403806,-1.2409723 1.846684,-1.4576522 3.708145,-0.8519419 1.861458,0.60571 2.900526,1.6300031 2.496719,2.8709757 -0.403807,1.2409721 -2.467169,1.2557486 -2.467169,1.2557486 L 19.790861,19.03033"
     id="path4-1" />
  <path
     style="fill:none;fill-opacity:1;stroke:#d9d9d9;stroke-width:0.31749999;stroke-linecap:round;stroke-linejoin:round;stroke-dasharray:none;stroke-opacity:1"
     d="m 14.206483,17.213199 5.28643,-10.9742388 c 0,0 -1.659558,-1.226196 -1.255751,-2.4671687 0.403806,-1.2409723 1.846684,-1.4576522 3.708145,-0.8519419 1.861458,0.60571 2.900526,1.6300031 2.496719,2.8709757 -0.403807,1.2409721 -2.467169,1.2557486 -2.467169,1.2557486 L 19.790861,19.03033"
     id="path1" />
  <rect
     style="fill:#1a1a1a;fill-opacity:1;stroke:#000000;stroke-width:0.529167;stroke-linecap:round;stroke-linejoin:round;stroke-dasharray:none;stroke-opacity:1"
     id="rect4"
     width="13.050184"
     height="7.1776009"
     x="9.8738871"
     y="11.076215" />
  <path
     style="fill:none;fill-opacity:1;stroke:#808080;stroke-width:0.529167;stroke-linecap:round;stroke-linejoin:round;stroke-dasharray:none;stroke-opacity:1"
     d="M 13.462687,17.927561 15.09396,5.8561404 c 0,0 -1.957527,-0.6525088 -1.957527,-1.9575272 0,-1.3050181 1.305018,-1.9575275 3.262546,-1.9575275 1.957527,0 3.262544,0.6525094 3.262544,1.9575275 0,1.3050184 -1.957526,1.9575272 -1.957526,1.9575272 l 1.631272,12.0714206"
     id="path4" />
  <rect
     style="fill:#1a1a1a;fill-opacity:1;stroke:#000000;stroke-width:0.529167;stroke-linecap:round;stroke-linejoin:round;stroke-dasharray:none;stroke-opacity:1"
     id="rect3"
     width="14.355202"
     height="1.3050183"
     x="9.2213774"
     y="18.253817" />
  <g
     id="g6"
     transform="translate(-0.79495032,-1.8664829)">
    <path
       style="fill:#1a1a1a;fill-opacity:1;stroke:#171717;stroke-width:0.529167;stroke-linecap:round;stroke-linejoin:round;stroke-dasharray:none;stroke-opacity:1"
       d="M 5.2916665,23.812499 H 28.045833 v 0"
       id="path6" />
    <path
       style="fill:#1a1a1a;fill-opacity:1;stroke:#171717;stroke-width:0.529167;stroke-linecap:round;stroke-linejoin:round;stroke-dasharray:none;stroke-opacity:1"
       d="M 5.2916665,26.458332 H 28.045834 v 0"
       id="path6-0" />
    <path
       style="fill:#1a1a1a;fill-opacity:1;stroke:#171717;stroke-width:0.529167;stroke-linecap:round;stroke-linejoin:round;stroke-dasharray:none;stroke-opacity:1"
       d="M 5.2916665,29.104166 H 28.045833 v 0"
       id="path6-0-9" />
  </g>
  <path
     style="fill:none;fill-opacity:1;stroke:#ffffff;stroke-width:0.31749999;stroke-linecap:round;stroke-linejoin:round;stroke-dasharray:none;stroke-opacity:1"
     d="M 13.462687,17.927561 15.09396,5.8561404 c 0,0 -1.957527,-0.6525088 -1.957527,-1.9575272 0,-1.3050181 1.305018,-1.9575275 3.262546,-1.9575275 1.957527,0 3.262544,0.6525094 3.262544,1.9575275 0,1.3050184 -1.957526,1.9575272 -1.957526,1.9575272 l 1.631272,12.0714206"
     id="path2" />
</svg>
